<svg id="Layer_1" enable-background="new 0 0 256 256" height="512" viewBox="0 0 256 256" width="512" xmlns="http://www.w3.org/2000/svg"><path d="m127.701 106.743c-17.888 0-32.39-14.501-32.39-32.39v10c0 17.889 14.501 32.39 32.39 32.39 17.888 0 32.39-14.501 32.39-32.39v-10c0 17.888-14.501 32.39-32.39 32.39z" fill="#ebe7f2"/><path d="m175.361 149.408h-.124l-4.138 5.877h-85.633l-4.138-5.877h-.124c-1.345 0-2.435 1.09-2.435 2.435v1.931l6.696 9.511h85.633l6.697-9.511v-1.931c.001-1.344-1.09-2.435-2.434-2.435z" fill="#ebe7f2"/><path d="m175.361 211.417h-94.765c-.154 0-.304-.015-.45-.042l-1.985 2.585v3.022c0 1.345 1.09 2.435 2.435 2.435h94.765c1.345 0 2.435-1.09 2.435-2.435v-3.022l-1.842-2.616c-.19.047-.389.073-.593.073z" fill="#ebe7f2"/><path d="m152.024 195.66h-47.484c-1.345 0-2.435-1.09-2.435-2.435v-19.481c0-1.345 1.09-2.435 2.435-2.435h47.484c1.345 0 2.435 1.09 2.435 2.435v19.481c0 1.345-1.09 2.435-2.435 2.435z" fill="#ebe7f2"/><g fill="#846f75"><path d="m175.36 146.908h-94.156c-2.721 0-4.935 2.214-4.935 4.935v1.931c0 .515.159 1.018.456 1.439l6.24 8.864v39.523l-6.788 8.837c-.336.437-.518.972-.518 1.523v3.022c0 2.721 2.214 4.935 4.936 4.935h94.765c2.722 0 4.936-2.214 4.936-4.935v-3.022c0-.515-.159-1.018-.456-1.439l-6.24-8.864v-39.581l6.24-8.864c.297-.421.456-.924.456-1.439v-1.931c0-2.72-2.214-4.934-4.936-4.934zm-6.76 55.04h-80.634v-36.163h80.634zm6.76 14.969-94.7.065v-2.173l6.038-7.86h83.104l5.511 7.828zm-.064-63.935-5.493 7.803h-83.04l-5.522-7.845-.036-1.032h94.092v1.074z"/><path d="m117.973 120.583c-1.381 0-2.5 1.119-2.5 2.5v8.403h-17.325c-5.407 0-9.806 4.398-9.806 9.805 0 1.381 1.119 2.5 2.5 2.5s2.5-1.119 2.5-2.5c0-2.649 2.156-4.805 4.806-4.805h19.824 19.457 23.27c2.649 0 4.806 2.156 4.806 4.805 0 1.381 1.119 2.5 2.5 2.5s2.5-1.119 2.5-2.5c0-5.407-4.398-9.805-9.806-9.805h-20.77v-8.403c0-1.381-1.119-2.5-2.5-2.5s-2.5 1.119-2.5 2.5v8.403h-14.457v-8.403c.001-1.38-1.118-2.5-2.499-2.5z"/><path d="m178.437 47.804h-10.421c-1.381 0-2.5 1.119-2.5 2.5s1.119 2.5 2.5 2.5h10.333v21.91c0 8.161-4.876 15.472-12.423 18.624-1.273.532-1.875 1.996-1.343 3.27.4.959 1.329 1.537 2.308 1.537.321 0 .647-.062.963-.194 9.413-3.932 15.495-13.053 15.495-23.237v-21.998c0-2.708-2.203-4.912-4.912-4.912z"/><path d="m88.146 97.951c.315.132.642.194.963.194.979 0 1.907-.578 2.308-1.537.532-1.274-.069-2.738-1.343-3.27-7.547-3.152-12.423-10.463-12.423-18.624v-21.91h10.333c1.381 0 2.5-1.119 2.5-2.5s-1.119-2.5-2.5-2.5h-10.421c-2.709 0-4.912 2.204-4.912 4.912v21.998c0 10.184 6.082 19.306 15.495 23.237z"/><path d="m127.701 119.243c19.238 0 34.89-15.652 34.89-34.89v-42.177c0-4.462-3.63-8.092-8.092-8.092h-53.595c-4.462 0-8.093 3.63-8.093 8.092v42.177c.001 19.238 15.652 34.89 34.89 34.89zm-29.889-77.067c0-1.705 1.388-3.092 3.093-3.092h53.595c1.705 0 3.092 1.387 3.092 3.092v42.177c0 16.481-13.408 29.89-29.89 29.89s-29.89-13.409-29.89-29.89z"/></g><path d="m143.295 66.665c.085.791-.207 1.632-.986 2.204l-5.296 3.847c-.852.621-1.205 1.717-.877 2.715l2.021 6.222c.718 2.24-1.838 4.091-3.738 2.715l-5.296-3.848c-.84-.621-1.997-.621-2.849 0l-5.296 3.848c-1.899 1.376-4.456-.475-3.726-2.715l2.021-6.222c.329-.998-.037-2.094-.877-2.715l-5.296-3.847c-1.899-1.376-.925-4.383 1.425-4.383h6.538c1.059 0 1.985-.67 2.313-1.68l2.021-6.222c.731-2.228 3.884-2.228 4.614 0l2.021 6.222c.317 1.011 1.254 1.68 2.301 1.68h6.55c.304 0 .597.049.852.146h.012c.377.134.682.365.938.645.073.085.134.17.195.268.195.28.329.597.377.925.013.073.025.134.038.195z" fill="#f9b087"/></svg>