<?xml version="1.0"?>
<svg xmlns="http://www.w3.org/2000/svg" id="Layer_1" enable-background="new 0 0 256 256" height="50.75rem" viewBox="0 0 256 256" width="50.75rem" class="hovered-paths"><g><path d="m84.833 98.483-10.458-31.302-17.789 31.302z" fill="#ebe7f2" data-original="#EBE7F2"/><path d="m171.167 98.483 10.458-31.302 17.789 31.302z" fill="#ebe7f2" data-original="#EBE7F2"/><path d="m109.072 98.483 17.294-24.482c.797-1.128 2.47-1.128 3.267 0l17.294 24.482z" fill="#65c1d6" data-original="#65C1D6" class="hovered-path active-path" style="fill:#6A3093" data-old_color="#65c1d6"/><g fill="#ebe7f2"><path d="m128 202.689 17.233-88.873c.239-1.234-.706-2.381-1.963-2.381h-30.316c-1.255 0-2.2 1.143-1.964 2.376z" data-original="#EBE7F2"/><path d="m65.461 111.435h20.573c.79 0 1.505.465 1.827 1.186l40.139 90.068z" data-original="#EBE7F2"/><path d="m190.538 111.435h-20.573c-.79 0-1.505.465-1.827 1.186l-40.138 90.068z" data-original="#EBE7F2"/></g><path d="m201.805 99.175c.045-.156.074-.316.088-.483.004-.05.014-.098.015-.147.001-.021.006-.041.006-.062 0-.19-.025-.373-.065-.551-.009-.037-.024-.073-.034-.11-.047-.172-.112-.335-.193-.491-.014-.027-.018-.058-.033-.084l-25.671-45.172c-.016-.028-.04-.048-.056-.074-.084-.136-.181-.263-.29-.381-.039-.042-.078-.083-.12-.122-.117-.111-.245-.209-.384-.296-.031-.019-.058-.043-.09-.061-.157-.089-.323-.166-.502-.22-.015-.005-.03-.005-.045-.009-.045-.013-.091-.017-.137-.027-.153-.034-.306-.056-.459-.061-.031-.001-.06-.012-.091-.012h-91.487c-.03 0-.057.01-.087.012-.155.005-.31.027-.466.062-.045.01-.09.014-.134.027-.015.004-.031.004-.046.009-.179.055-.346.131-.502.22-.032.018-.059.042-.09.061-.139.087-.267.186-.384.296-.042.039-.081.08-.12.122-.109.118-.206.245-.29.381-.017.027-.041.047-.056.074l-25.67 45.172c-.015.027-.019.057-.033.085-.081.155-.146.318-.193.49-.01.037-.026.073-.034.11-.04.177-.065.361-.065.551 0 .021.006.041.006.062.001.05.011.098.015.147.014.166.043.327.088.482.015.052.03.104.048.156.072.198.16.388.277.56l.003.006 71.414 104.205c.003.005.009.009.012.014.103.147.223.279.353.4.031.029.063.056.096.083.131.11.269.209.419.29.008.004.015.01.022.014.156.082.324.142.496.189.042.012.083.022.125.031.175.039.354.066.539.066s.364-.027.539-.066c.042-.01.084-.019.126-.031.172-.048.34-.107.496-.189.008-.004.015-.01.022-.014.15-.081.288-.18.419-.29.033-.027.065-.054.096-.083.13-.121.25-.253.353-.4.003-.005.009-.009.012-.014l71.414-104.205c.001-.002.002-.004.003-.006.117-.172.205-.362.277-.56.018-.052.033-.103.048-.156zm-120.24-39.585 11.145 36.393h-31.827zm74.965 41.393-28.53 93.167-28.53-93.167zm-55.613-5 27.083-38.338 27.083 38.339h-54.166zm31.91-40.171h37.536l-11.351 37.067zm-35.839 37.067-11.351-37.067h37.536zm-2.748 8.104 26.584 86.812-59.494-86.812zm67.52 0h32.91l-59.494 86.812zm1.531-5 11.145-36.393 20.682 36.393z" fill="#846f75" data-original="#846F75" class="" style="fill:#846F75"/></g> </svg>
