<svg xmlns="http://www.w3.org/2000/svg" viewBox="0 0 2298.23 1435.24"><defs><style>.cls-1{isolation:isolate;}.cls-2{fill:#ecf9fe;}.cls-3{fill:#e0f7fa;}.cls-4{fill:#c5eafb;}.cls-5{fill:#eceded;}.cls-6{fill:#10344a;}.cls-7{fill:#80c9ed;}.cls-8{fill:#67b7de;}.cls-9{fill:#ff4f3b;}.cls-10{fill:#fff;}.cls-11{fill:#d1d3d4;}.cls-12,.cls-34{fill:#e6e7e8;}.cls-12,.cls-28{mix-blend-mode:multiply;}.cls-13{fill:#f1f2f2;}.cls-14{fill:#e2e3e3;}.cls-15{fill:#2f86b5;}.cls-16{fill:#333;mix-blend-mode:screen;}.cls-17{fill:#276f96;}.cls-18{fill:#154965;}.cls-19{fill:#ffd3cf;}.cls-20{fill:#1b6085;}.cls-21{fill:#154a66;}.cls-22{fill:#2176a3;}.cls-23{fill:#1a5c80;}.cls-24{fill:#f5b9b5;}.cls-25{fill:#0f3447;}.cls-26{fill:#d2f0f7;}.cls-27{fill:#97d7e8;}.cls-29{fill:#dcf2f7;}.cls-30{fill:#ace4f2;}.cls-31{fill:#f7f7f7;}.cls-32{fill:#bcbec0;}.cls-33{fill:#d7d8d9;}</style></defs><title>Asset 4</title><g class="cls-1"><g id="Layer_2" data-name="Layer 2"><g id="Layer_1-2" data-name="Layer 1"><path class="cls-2" d="M2140.94,392c-55,3.93-112.5,141.88-39,247.06s171,47.1,192-30.72S2257.94,383.67,2140.94,392Z"/><path class="cls-3" d="M791.83,69.42c-1.61,28.43,65.27,67,124,36.25s35.39-84.51-3.1-100.39S795.25,8.93,791.83,69.42Z"/><path class="cls-2" d="M112.14,443.45C72.94,429.84,2.94,472.22.1,556.78-2.66,638.5,54.76,666.51,104,628.13,145,596.12,182.75,468,112.14,443.45Z"/><path class="cls-3" d="M1633,1331.82s442.73,28.22,557.86-222.18c111.51-242.51-215.82-433.32-163.59-667,74.47-333.21-134.22-436.49-505.9-337.1S1085.22,212,1085.22,212L972.55,158.57l-103.87-3.8s-253.7-128-487-58.85C171.2,158.29,197.87,359.43,197.87,359.43S238.94,548.14,74.49,802.24C-58,1007-80.23,1443.6,921.18,1315.37l294.46,81.06Z"/><path class="cls-4" d="M859,1095.85C689.57,993.45,645.39,898.27,594.22,788.06,581,759.65,567.39,730.27,551,699.45c-37.43-70.51-77.46-124.26-122.36-164.31-45.11-40.24-91.77-63.67-131.46-81.28-89.56-39.73-120.95-89.52-121.26-90l-7.08,4.33c1.3,2.12,32.82,52.39,125,93.28C391.92,505,467.93,560.6,543.7,703.34c16.26,30.62,29.85,59.9,43,88.21,51.74,111.44,96.42,207.69,268,311.4Z"/><path class="cls-4" d="M104.46,278.9c-25.3,19.12-6,67.1,23.84,100.31,28.38,31.53,61.45,39.76,78.35,28.65,17.33-11.4,23.17-46.25-9.47-89.1C160.18,270.19,121.85,265.75,104.46,278.9Z"/><path class="cls-4" d="M74.5,486.66c.51,31.7,50.61,44.46,95.05,39.93,42.2-4.31,68.36-26.15,69.35-46.35,1-20.72-23.66-46-77.51-44.93C100.34,436.53,74.15,464.85,74.5,486.66Z"/><path class="cls-4" d="M302.62,278.58c-30.37,9.1-29,60.79-12.61,102.33,15.6,39.44,43.72,58.69,63.43,54.16,20.22-4.64,37.85-35.27,22.19-86.8C357.89,289.84,323.51,272.32,302.62,278.58Z"/><path class="cls-4" d="M227,601.41c4.26,31.41,55.53,38.15,99.11,28.38,41.39-9.28,64.78-34.07,63.37-54.25-1.44-20.69-29-42.86-82.29-35.41C246.72,548.57,224.06,579.8,227,601.41Z"/><path class="cls-4" d="M553.16,364.07c-26.52-17.38-65.22,16.91-86.42,56.23-20.13,37.33-16.75,71.24-.6,83.41,16.57,12.48,51.35,6.25,80.71-38.91C580.12,413.61,571.4,376,553.16,364.07Z"/><path class="cls-4" d="M336.89,723.38c4.26,31.41,55.53,38.15,99.11,28.38,41.4-9.28,64.78-34.07,63.38-54.24-1.44-20.7-29-42.87-82.3-35.42C356.61,670.54,334,701.77,336.89,723.38Z"/><path class="cls-4" d="M683.39,546.82c-18.36-25.84-66.89-8-101,20.87-32.35,27.43-41.56,60.24-30.95,77.46,10.88,17.66,45.54,24.53,89.33-6.83C690.46,602.78,696,564.6,683.39,546.82Z"/><path class="cls-4" d="M452.42,947c21.15,23.63,67.37.46,98-32.07C579.48,884,585,850.39,572.47,834.47c-12.79-16.33-48-19.26-88,16.81C439.13,892.17,437.88,930.73,452.42,947Z"/><path class="cls-4" d="M781,730.49c-12.45-29.16-63.67-22-103.1-1-37.44,19.93-53.4,50-46.69,69.12,6.88,19.57,39.29,33.64,88.74,12.3C776,786.67,789.52,750.54,781,730.49Z"/><path class="cls-4" d="M569.87,1089.05c21.34,18.59,59.72-7,83.24-39.23,22.34-30.57,23.47-61,10.66-73.69-13.14-13-44.65-11.75-76.09,24.62C552,1042,555.2,1076.27,569.87,1089.05Z"/><path class="cls-4" d="M855.36,923.39c-.46-28.3-45.18-39.69-84.84-35.64-37.66,3.85-61,23.34-61.9,41.37-.91,18.5,21.13,41.06,69.19,40.1C832.3,968.13,855.68,942.85,855.36,923.39Z"/><rect class="cls-4" x="234.98" y="458.82" width="54" height="8.3" transform="translate(-139.36 113.83) rotate(-19.47)"/><rect class="cls-4" x="339.83" y="433.65" width="8.3" height="47.58"/><polygon class="cls-4" points="476.54 506.95 469.61 502.38 438.65 549.33 385.72 568.99 388.61 576.77 444.09 556.17 476.54 506.95"/><polygon class="cls-4" points="558.36 648.79 550.93 645.1 534.09 679.01 496.48 690.69 498.94 698.62 539.94 685.88 558.36 648.79"/><polygon class="cls-4" points="640.11 802.9 633.76 797.55 608.06 828.03 570.65 834.31 572.02 842.5 612.44 835.71 640.11 802.9"/><polygon class="cls-4" points="712.41 939.81 710.81 931.67 672.56 939.17 656.46 974.83 664.02 978.24 678.36 946.49 712.41 939.81"/><path class="cls-4" d="M1777.28,1157.63c72.58-33.25,128.57-70.07,171.18-112.55,42.8-42.68,68.91-87.9,88.81-126.49,44.89-87.09,96.44-115.52,96.95-115.8l-3.91-7.31c-2.2,1.17-54.22,29.7-100.42,119.3-49.16,95.37-109.15,168-256.07,235.31Z"/><path class="cls-4" d="M2223.18,736.38c-17.6-26.37-66.63-9.94-101.52,18-33.13,26.48-43.28,59-33.17,76.53,10.36,18,44.81,25.84,89.49-4.24C2228.63,792.52,2235.3,754.52,2223.18,736.38Z"/><path class="cls-4" d="M2017.53,694.34c-31.67-1.34-47.34,47.93-45.41,92.56,1.84,42.38,22.11,69.77,42.22,71.94,20.63,2.23,47.3-20.94,49.38-74.76C2066.07,723.07,2039.32,695.26,2017.53,694.34Z"/><path class="cls-4" d="M2211.93,934.23c-7.31-30.85-59-32.55-101.41-18.57-40.29,13.27-61.14,40.22-57.78,60.16,3.46,20.46,33,39.84,85.37,27.22C2197.46,988.74,2217,955.45,2211.93,934.23Z"/><path class="cls-4" d="M1894.08,839.88c-31.62,2.42-41.33,53.21-34.12,97.29,6.84,41.86,30.22,66.65,50.45,66.43,20.74-.23,44.48-26.4,40.16-80.09C1945.68,862.65,1915.82,838.21,1894.08,839.88Z"/><path class="cls-4" d="M2112,1179.34c18.9-25.46-13.07-66.09-51.08-89.55-36.1-22.28-70.15-20.89-83.24-5.47-13.43,15.81-9.23,50.9,34.14,82.84C2060.94,1203.37,2099,1196.85,2112,1179.34Z"/><rect class="cls-4" x="2026.09" y="855.89" width="8.3" height="54.01" transform="translate(-165.34 598.67) rotate(-16.13)"/><rect class="cls-4" x="2026.81" y="941.27" width="8.3" height="47.58" transform="translate(947.34 2935.33) rotate(-86.61)"/><polygon class="cls-4" points="1973.8 1094.51 1978.77 1087.86 1933.7 1054.21 1917.16 1000.23 1909.23 1002.65 1926.56 1059.24 1973.8 1094.51"/><path class="cls-5" d="M1291.2,1290.58c-263.34-2.74-888.75,5.41-888.53,47,.22,41.94,524.2,38.71,524.2,38.71s-157.73,6.63-157.73,35.93,406.77,34,817.83-5.67c242-23.35,155.66-53.61,155.66-53.61s103.75-4.83,103.81-20.53C1846.51,1309.22,1584,1293.62,1291.2,1290.58Z"/><path class="cls-6" d="M447.31,1306.4c-25.8-16.5-44.1-41.64-52.94-72.71-12.29-43.21-5.49-95.94,18.65-144.66,25.5-51.49,68.14-94.52,120-121.16a18,18,0,1,1,16.45,32c-99.27,51-139.84,155.91-120.49,223.93,14,49.36,57.09,73.72,121.2,68.58,41.63-3.34,192.93-72.76,738.57-500.15,311.87-244.29,604.73-489.95,607.65-492.4a18,18,0,1,1,23.16,27.59c-2.92,2.45-296.19,248.45-608.53,493.11-183.58,143.8-337.79,259-458.34,342.54C697.61,1270.55,599.61,1324.6,553.1,1328.32c-42.05,3.38-77.56-4-105.56-21.77Z"/><path class="cls-7" d="M1801.17,405.87c-73.33-89.74-405.29-459.13-932.49-251.1C926,182.33,1174,281.05,1136.7,557.53c91.43-2.84,334.1,159.22,315.26,436.8,97.46,24.68,255.18,143.39,249.93,334.91C1701.89,1329.24,2123.21,967.41,1801.17,405.87Z"/><path class="cls-8" d="M1805.77,414c-1.53-2.72-3-5.43-4.6-8.16-3.25-4-7-8.5-11.25-13.48-49.71-35.7-105.38-56.6-165.72-62.19-57.91-5.36-120.24,3.3-185.28,25.74C1293.68,406.07,1182.18,506.33,1137.53,551c-.26,2.16-.53,4.33-.83,6.52,1.81-.06,3.68,0,5.61,0,43.61-43.8,154.56-144.13,299.22-194,137.8-47.55,257.51-32.6,355.79,44.42,23.8,296.64-151.37,454.94-345.06,581.42-.09,1.66-.19,3.31-.3,5,1.71.43,3.44.9,5.18,1.39C1651.23,868.9,1826.73,710.23,1805.77,414Z"/><path class="cls-9" d="M981.59,266.25c-80.12-40.85-139.06,48.17-145.32,59.56-6.27-11.39-64.89-102-145.32-59.56-102.42,54-47.81,209.49,143.1,325.24C1025,475.74,1084.75,318.84,981.59,266.25Z"/><path class="cls-10" d="M997.89,442.54h-85.2l-14.65,27L869.7,313.68l-37.16,207-35-142.92L777.3,442.3H674v3.79c.82,1.26,1.68,2.52,2.53,3.79H782.86l13.81-44,37,151.27,36.07-200.88,24.69,135.8,22.76-42h75.62C994.57,447.58,996.25,445.06,997.89,442.54Z"/><polygon class="cls-11" points="793.97 680.55 839.37 1330.07 1282.62 1329.61 1304.18 669.33 793.97 680.55"/><polygon class="cls-12" points="1256.62 1304.04 1272.6 1305.18 1284.78 694.88 1251.23 721.09 1256.62 1304.04"/><polygon class="cls-10" points="818.35 703.66 1284.78 694.88 1261.57 1308.86 862.61 1307.22 818.35 703.66"/><polygon class="cls-13" points="887.43 1133.02 980.75 1130.09 982.16 1061.98 882.99 1067.75 887.43 1133.02"/><polygon class="cls-13" points="877.26 983.4 881.09 1039.76 982.61 1040.37 983.95 975.93 877.26 983.4"/><polygon class="cls-13" points="986.52 851.71 988.33 764.47 862.47 765.86 868.55 855.41 986.52 851.71"/><polygon class="cls-13" points="870.35 881.78 875.48 957.27 984.31 958.4 986.14 870.05 870.35 881.78"/><polygon class="cls-13" points="888.67 1151.37 894.3 1228.2 978.76 1225.58 980.85 1151.45 888.67 1151.37"/><path class="cls-12" d="M1221.59,722s-.21-23.46-12.33-50.6l-23.07.73-34,10.93L1212,708.14Z"/><polygon class="cls-9" points="876.06 804.66 896.85 797.85 921.82 825.44 949.53 769.53 974.74 769.53 926.28 843.36 876.06 804.66"/><polygon class="cls-9" points="876.06 908.38 896.85 901.57 921.82 929.17 949.53 873.26 974.74 873.26 926.28 947.09 876.06 908.38"/><polygon class="cls-9" points="876.06 1000.07 896.85 993.26 921.82 1020.86 949.53 964.95 974.74 964.95 926.28 1038.78 876.06 1000.07"/><polygon class="cls-9" points="876.06 1086.81 896.85 1080 921.82 1107.6 949.53 1051.69 974.74 1051.69 926.28 1125.52 876.06 1086.81"/><polygon class="cls-9" points="876.06 1178.97 896.85 1172.16 921.82 1199.76 949.53 1143.85 974.74 1143.85 926.28 1217.68 876.06 1178.97"/><polygon class="cls-14" points="1006.44 764.47 1006.44 787.21 1202.64 780.85 1202.64 764.47 1006.44 764.47"/><polygon class="cls-14" points="1006.44 796.68 1006.44 819.43 1258.31 819.43 1258.31 802.43 1006.44 796.68"/><polygon class="cls-14" points="1006.44 828.9 1006.44 851.64 1144.47 851.64 1144.47 833.71 1006.44 828.9"/><polygon class="cls-14" points="1003.31 874.1 1003.31 895.04 1227.03 889.18 1227.03 874.1 1003.31 874.1"/><polygon class="cls-14" points="1003.31 903.76 1003.31 924.69 1178.24 924.69 1178.24 909.05 1003.31 903.76"/><polygon class="cls-14" points="1003.31 933.41 1003.31 954.35 1210.77 954.35 1210.77 937.84 1003.31 933.41"/><polygon class="cls-14" points="999.35 988.19 999.35 1009.12 1174.29 1009.12 1174.29 993.48 999.35 988.19"/><polygon class="cls-14" points="999.35 1017.85 999.35 1038.78 1251.23 1038.78 1251.23 1022.27 999.35 1017.85"/><polygon class="cls-14" points="999.35 1061.98 999.35 1082.91 1138.21 1082.91 1138.21 1067.27 999.35 1061.98"/><polygon class="cls-14" points="999.35 1091.63 999.35 1112.57 1210.77 1112.57 1210.77 1096.06 999.35 1091.63"/><polygon class="cls-14" points="999.35 1204.34 999.35 1225.28 1167.61 1225.28 1167.61 1208.77 999.35 1204.34"/><polygon class="cls-14" points="999.35 1151.37 999.35 1172.3 1193.88 1172.3 1193.88 1155.8 999.35 1151.37"/><path class="cls-12" d="M905.89,678.09C897,708.7,899.35,728,899.35,728l18.26-20.83,27.11-19V677.24Z"/><path class="cls-15" d="M1051.27,513.5a66.37,66.37,0,1,0,68.42,64.25A66.36,66.36,0,0,0,1051.27,513.5Zm-2.56,102.42a33,33,0,1,1,31.94-34A33,33,0,0,1,1048.71,615.92Z"/><path class="cls-15" d="M899.35,728s28.77-104.75,155.24-108.72,167,102.76,167,102.76Z"/><path class="cls-16" d="M989.82,644.49l13.41,13.14a90.83,90.83,0,0,1,34.53-26.2S1016.63,632,989.82,644.49Z"/><path class="cls-16" d="M956.91,665.12c-15.53,12.62-31,30-43.94,53.79l62.74-2a143.19,143.19,0,0,1,15.2-41.18Z"/><path class="cls-17" d="M1513.21,645.27S1628.12,984.5,1894.5,964c0,0,166.5-143.15-.12-490.43C1894.38,473.58,1672.69,429.89,1513.21,645.27Z"/><rect class="cls-10" x="1742.18" y="591.44" width="63.3" height="234.48" transform="translate(-132.01 837.04) rotate(-25.63)"/><rect class="cls-10" x="1742.18" y="591.44" width="63.3" height="234.48" transform="translate(1645.46 -1197.15) rotate(64.37)"/><path class="cls-16" d="M1894.5,964s78.06-67.12,73.79-220.93c-270.8,38-403-98.33-429.45-129.67q-13,14.9-25.63,31.86s42,124.08,134.19,217.62c49.22,49.56,117.32,81.49,198.84,100.91A292.8,292.8,0,0,0,1894.5,964Z"/><path class="cls-10" d="M1899.12,975.15l-3.74.29c-63.18,4.85-123.31-9.53-178.73-42.76-43.94-26.35-84.93-64.53-121.84-113.46-62.41-82.77-91.25-166.74-92.45-170.28l-1.92-5.68,3.56-4.81c46-62.18,101.66-109.19,165.29-139.72a413.53,413.53,0,0,1,158.18-39.82c41.38-1.92,68,3.21,69.12,3.43l5.64,1.11,2.48,5.17c38.54,80.33,62.55,156.59,71.35,226.67,7.11,56.54,4.4,109.24-8,156.65-21.46,81.71-64.23,119.2-66,120.76Zm-373-328c7.52,20.06,36,90.76,87.37,158.71,78.72,104.17,171.6,153.6,276.11,147,9.12-9.19,40.22-44.19,56.71-108.48,17.82-69.47,21.75-188.15-59.66-360.43a326.27,326.27,0,0,0-58.88-2.12,390.64,390.64,0,0,0-148.55,37.55C1620.64,547.49,1569.16,590.47,1526.1,647.18Z"/><path class="cls-18" d="M699.54,1362.67a22.85,22.85,0,0,1,6.34-10.56h5.37s15-1.34,26.11,10.56Z"/><polygon class="cls-19" points="819.14 1336.75 821.83 1339.06 825.1 1354.8 831.43 1354.8 828.55 1335.22 822.02 1335.22 819.14 1336.75"/><path class="cls-20" d="M793.15,1094.44l-2.23,4.17s32.26,124.11,41.47,247.36h-13s-55-178.25-65.37-205.9S773.65,1113,773.65,1113l-4.36-23.33Z"/><path class="cls-21" d="M770,1188.06l7.78-65.83-17.55,35.71C763,1166.28,766.31,1176.58,770,1188.06Z"/><polygon class="cls-19" points="707.13 1340.5 705.88 1352.11 711.25 1352.11 713.17 1339.06 707.13 1340.5"/><path class="cls-20" d="M737.07,1097l-8.34,9.43S706.55,1202,704,1346h9.79s51.42-192.51,71.41-232.68L771.63,1097Z"/><path class="cls-22" d="M756.94,965.14s-10.72-2-12.56-2.16-12.63.28-12.63.28-74.63,25.06-107.27,97.24c0,0,19.79,38,97,45.69l.48-6.58s-34.65-21.33-42.2-48.52c0,0,6.46-12.09,25.15-23.23,3-1.77,14-13.24,14-13.24l13.63-24-3.69-16.12Z"/><path class="cls-22" d="M695.9,1016l9,11.9s25,45.69,20.78,78.81c0,0,42.19-3.46,70.12-6.91,0,0,.29-73.43,8.93-110,0,0-18.2-12.65-36.89-18.42L763,989.76l-22.75,12.38-20.73-4.9-15.7,11.81Z"/><path class="cls-10" d="M735.78,960l-4,3.31s24.19,46.94,38.15,82.22c0,0-4.39-58-13-80.34l-14.88-6.34h-3.83Z"/><path class="cls-23" d="M756.72,963.26,777,973.34l-10.12,7.78,15,9.65-12,54.71S761.22,981.87,756.72,963.26Z"/><path class="cls-19" d="M722,1099.61l12.78-6,11.88,7.88s4.84,13.13,3.44,14.32-2.12-.59-2.12-.59,1.31,2.62.35,3.46-3.1-2.39-3.1-2.39,1.08,3.34-.24,3.46-1.85-3.82-1.85-3.82-1.25,3.58-2.33,1.91-5.25-3.82-6-11.16a19.17,19.17,0,0,1-13.26-.48Z"/><path class="cls-19" d="M754.5,945l2.44,20.16s1.3,5.32-6.91,6.48-18.28-8.36-18.28-8.36L733.44,934l15.3-1.3v2.45Z"/><path class="cls-24" d="M732.74,946.12c3.86,5.25,11.12,11.9,23.62,14.18l-1.76-14.44c-4.18-2.13-7.45-3.62-7.45-3.62L733.38,935Z"/><path class="cls-19" d="M764.14,887s13.82,5.76,17.57,35.71l-8.78,2s1.29,20.44-9.08,24.47-25.34,2.31-35.13-19.29,7.2-36.28,8.35-36.57S757.81,887,757.81,887Z"/><path class="cls-25" d="M773.43,896.37s11.16-5.53,11.3-16.9-4.61-14.11-9.5-12-7.64,6.91-21.53,6S716.34,868.24,707,889s4.47,35.28,9.65,38.73,6.19,19.58,15.12,19.87,11.66-11.66,9.07-21.88l3.45-7.49-.57-2.59s11.23-1.73,15.69-9.51,4.33-12.52,9.08-16A74.64,74.64,0,0,1,773.43,896.37Z"/><path class="cls-19" d="M743.7,915.61a6.17,6.17,0,0,0-.26-.71c-.64-1.52-2.61-4.81-7.23-2.89-5.9,2.44-2.16,21,9.07,17.13s1.44-10.22,1.44-10.22Z"/><path class="cls-23" d="M731.87,962.2,708,972.77,725.7,986.5l-10.8,18.72,55,40.26C760.7,1022.55,747,993.38,731.87,962.2Z"/><path class="cls-18" d="M818.27,1362.67a22.77,22.77,0,0,1,6.33-10.56H830a34.3,34.3,0,0,1,26.1,10.56Z"/><polygon class="cls-22" points="793.2 1010.92 804.75 989.76 816.07 996.75 819.91 1051.69 787.57 1034.56 790.38 1019.41 793.2 1010.92"/><path class="cls-26" d="M572.7,322.41l27.59-33.34a6.11,6.11,0,0,0-.81-8.62l-114.83-95a6.14,6.14,0,0,0-8.63.82l-27.59,33.34a6.12,6.12,0,0,0,.81,8.62l114.84,95A6.11,6.11,0,0,0,572.7,322.41Z"/><path class="cls-27" d="M572.7,322.41l27.59-33.34a6.11,6.11,0,0,0-.81-8.62l-114.83-95a6.14,6.14,0,0,0-8.63.82l-27.59,33.34a6.12,6.12,0,0,0,.81,8.62l114.84,95A6.11,6.11,0,0,0,572.7,322.41Z"/><g class="cls-28"><path class="cls-13" d="M505.27,232.21h39.86a3.65,3.65,0,0,1,3.65,3.65v38.31a3.65,3.65,0,0,1-3.65,3.65H505.27a3.65,3.65,0,0,1-3.65-3.65V235.86a3.64,3.64,0,0,1,3.64-3.64Z" transform="translate(-6.11 497.04) rotate(-50.39)"/></g><path class="cls-29" d="M520.34,225.12a3.65,3.65,0,0,1,5.13-.49L555,249.06a3.53,3.53,0,0,1,1,1.3,3.69,3.69,0,0,1-.57,1L530,282.07a3.65,3.65,0,0,1-5.13.49l-29.52-24.43a3.76,3.76,0,0,1-1-1.3,3.85,3.85,0,0,1,.57-1Z"/><g class="cls-28"><path class="cls-13" d="M494.92,255.83a3.85,3.85,0,0,0-.57,1,3.76,3.76,0,0,0,1,1.3l29.52,24.43a3.65,3.65,0,0,0,5.13-.49l25.42-30.71a3.69,3.69,0,0,0,.57-1,3.53,3.53,0,0,0-1-1.3l-5.71-4.72c-30.16,44.41-51.78,8.38-51.78,8.38Z"/></g><g class="cls-28"><polygon class="cls-13" points="536.16 300.12 568.15 254.52 553.68 242.54 553.68 242.54 521.62 279.89 519.1 286 536.16 300.12"/></g><g class="cls-28"><polygon class="cls-13" points="518.65 213.55 481.31 254.73 494.37 265.54 498.71 263.13 533.06 225.48 518.65 213.55"/></g><path class="cls-30" d="M592.85,205.48l-33.78-27a6.12,6.12,0,0,0-8.61.95L457.29,295.73a6.12,6.12,0,0,0,.95,8.61L492,331.39a6.12,6.12,0,0,0,8.61-.95L593.8,214.09A6.12,6.12,0,0,0,592.85,205.48Z"/><path class="cls-10" d="M496.41,259.4a3.64,3.64,0,0,1-.56-5.12l23.95-29.91a3.63,3.63,0,0,1,1.28-1,3.47,3.47,0,0,1,1,.56l31.12,24.91a3.65,3.65,0,0,1,.56,5.13l-23.95,29.9a3.52,3.52,0,0,1-1.28,1,3.43,3.43,0,0,1-1-.55Z"/><g class="cls-28"><path class="cls-31" d="M527.53,284.32a3.43,3.43,0,0,0,1,.55,3.52,3.52,0,0,0,1.28-1L553.77,254a3.65,3.65,0,0,0-.56-5.13l-31.12-24.91a3.47,3.47,0,0,0-1-.56,3.63,3.63,0,0,0-1.28,1l-4.63,5.78c44.88,29.44,9.21,51.65,9.21,51.65Z"/></g><path class="cls-32" d="M1818.67,183.7a14.84,14.84,0,1,0-12.05-17.18A14.84,14.84,0,0,0,1818.67,183.7Z"/><path class="cls-10" d="M1831.53,172.51a14.84,14.84,0,1,0-18.76,9.38A14.83,14.83,0,0,0,1831.53,172.51Z"/><path class="cls-33" d="M1811.28,181.3a14.45,14.45,0,0,0,3,1l4.66-14,4.67-14c-.48-.22-1-.41-1.49-.59s-1-.3-1.54-.42l-4.67,14Z"/><path class="cls-32" d="M261.83,1047.05a13.42,13.42,0,1,0-18.65,3.53A13.42,13.42,0,0,0,261.83,1047.05Z"/><path class="cls-10" d="M257.4,1032.28a13.42,13.42,0,1,0,.74,19A13.41,13.41,0,0,0,257.4,1032.28Z"/><path class="cls-33" d="M257.1,1052.25a12.35,12.35,0,0,0,1-1,12,12,0,0,0,.92-1.11l-9.79-9.06-9.79-9.06a14,14,0,0,0-1,1,13.65,13.65,0,0,0-.92,1.12l9.79,9.06Z"/><path class="cls-32" d="M1913.86,179.16a24.47,24.47,0,1,0-28.23,20A24.46,24.46,0,0,0,1913.86,179.16Z"/><path class="cls-10" d="M1895.31,158a24.47,24.47,0,1,0,15.62,30.88A24.47,24.47,0,0,0,1895.31,158Z"/><path class="cls-34" d="M1910,191.36a22.64,22.64,0,0,0,1-2.45,24,24,0,0,0,.68-2.55l-23.11-7.58-23.1-7.58a22,22,0,0,0-1,2.46,25.83,25.83,0,0,0-.69,2.54l23.11,7.58Z"/><path class="cls-32" d="M287.9,1158a26.59,26.59,0,1,0-35.13,13.39A26.59,26.59,0,0,0,287.9,1158Z"/><path class="cls-10" d="M246.58,1130a26.59,26.59,0,1,0,36.28,9.88A26.58,26.58,0,0,0,246.58,1130Z"/><path class="cls-33" d="M284.15,1142.48a26.82,26.82,0,0,0-1.29-2.57,24.7,24.7,0,0,0-1.56-2.4l-22.94,13.12-23,13.12a27.88,27.88,0,0,0,1.29,2.56,26.13,26.13,0,0,0,1.56,2.41l22.94-13.12Z"/><path class="cls-10" d="M239.75,857.93,186.26,866a15.29,15.29,0,0,0-12.81,17.39h0a15.29,15.29,0,0,0,17.39,12.81l53.48-8.1a15.28,15.28,0,0,0,12.82-17.39h0A15.29,15.29,0,0,0,239.75,857.93Z"/><path class="cls-9" d="M257.14,870.74h0a15.29,15.29,0,0,0-17.39-12.81l-27.32,4.14,5.15,30.11,26.74-4A15.28,15.28,0,0,0,257.14,870.74Z"/><path class="cls-10" d="M229,797.47l37.87,38.63a15.28,15.28,0,0,0,21.6.22h0a15.28,15.28,0,0,0,.21-21.6l-37.87-38.63a15.28,15.28,0,0,0-21.6-.21h0A15.27,15.27,0,0,0,229,797.47Z"/><path class="cls-15" d="M229.17,775.88h0a15.27,15.27,0,0,0-.21,21.59l19.35,19.74,21.39-21.8-18.93-19.32A15.28,15.28,0,0,0,229.17,775.88Z"/><path class="cls-10" d="M343.32,960.29l-40.7,35.64a15.27,15.27,0,0,0-1.42,21.55h0a15.26,15.26,0,0,0,21.54,1.42l40.7-35.64a15.27,15.27,0,0,0,1.42-21.55h0A15.26,15.26,0,0,0,343.32,960.29Z"/><path class="cls-15" d="M364.86,961.71h0a15.26,15.26,0,0,0-21.54-1.42L322.53,978.5l20.56,22.58,20.35-17.82A15.27,15.27,0,0,0,364.86,961.71Z"/><path class="cls-10" d="M1726.12,193.37l-25.68-47.06a15.13,15.13,0,0,0-20.53-6h0a15.13,15.13,0,0,0-6,20.53l25.68,47.06a15.13,15.13,0,0,0,20.53,6h0A15.13,15.13,0,0,0,1726.12,193.37Z"/><path class="cls-9" d="M1720.08,213.9h0a15.13,15.13,0,0,0,6-20.53L1713,169.32l-26.29,15,12.84,23.53A15.13,15.13,0,0,0,1720.08,213.9Z"/><path class="cls-10" d="M1976.65,437.11l13-52a15.14,15.14,0,0,0-11-18.35h0a15.14,15.14,0,0,0-18.35,11l-13,52a15.13,15.13,0,0,0,11,18.35h0A15.14,15.14,0,0,0,1976.65,437.11Z"/><path class="cls-15" d="M1958.3,448.13h0a15.14,15.14,0,0,0,18.35-11l6.63-26.57-29.5-6.77-6.49,26A15.13,15.13,0,0,0,1958.3,448.13Z"/></g></g></g></svg>