<?xml version="1.0"?>
<svg xmlns="http://www.w3.org/2000/svg" id="Layer_1" enable-background="new 0 0 256 256" height="50.75rem" viewBox="0 0 256 256" width="50.75rem" class="hovered-paths"><g><path d="m129.793 155.589 4.024 8.155c.291.59.854.999 1.506 1.094l8.999 1.308c1.64.238 2.295 2.254 1.108 3.411l-6.512 6.347c-.471.459-.686 1.121-.575 1.77l1.537 8.963c.28 1.634-1.435 2.88-2.902 2.108l-8.049-4.232c-.583-.306-1.279-.306-1.861 0l-8.049 4.232c-1.467.771-3.182-.475-2.902-2.108l1.537-8.963c.111-.649-.104-1.311-.575-1.77l-6.512-6.347c-1.187-1.157-.532-3.173 1.108-3.411l8.999-1.308c.651-.095 1.215-.504 1.506-1.094l4.024-8.155c.736-1.486 2.856-1.486 3.589 0z" fill="#ed9abc" data-original="#ED9ABC" class="hovered-path active-path" style="fill:#B79891" data-old_color="#ed9abc"/><path d="m140.949 100.677 20.523-12.938v-51.543h-20.523z" fill="#ebe7f2" data-original="#EBE7F2"/><path d="m94.528 87.739 20.523 12.938v-64.481h-20.523z" fill="#ebe7f2" data-original="#EBE7F2"/><g fill="#846f75"><path d="m182.307 157.486c-.603-1.854-2.175-3.179-4.104-3.46l-31.559-4.622-14.085-28.54h-.001c-.862-1.748-2.609-2.833-4.559-2.833s-3.696 1.086-4.56 2.834l-14.147 28.585-31.496 4.577c-1.929.281-3.501 1.606-4.104 3.46s-.109 3.851 1.286 5.211l22.814 22.29-5.38 31.368c-.33 1.921.445 3.827 2.022 4.973.891.647 1.934.977 2.983.977.808 0 1.62-.195 2.37-.59l28.249-14.81 28.17 14.809c1.728.909 3.778.759 5.354-.386 1.577-1.146 2.353-3.051 2.022-4.972l-5.355-31.443 22.79-22.215c1.399-1.362 1.892-3.359 1.29-5.213zm-4.777 1.631-22.79 22.215c-1.199 1.169-1.746 2.853-1.462 4.5l5.38 31.368s-.122.088-.122.088l-28.17-14.809c-1.482-.779-3.251-.779-4.731 0l-28.171 14.81c-.001 0-.122-.088-.122-.088l5.38-31.366c.284-1.65-.263-3.333-1.462-4.502l-22.79-22.215-1.745 1.79 1.791-1.933 31.495-4.577c1.657-.24 3.089-1.28 3.829-2.781l14.16-28.587c.053 0 .059.012.075.047l14.085 28.54c.74 1.501 2.172 2.541 3.828 2.781l31.496 4.577.359-2.474z" data-original="#846F75" class=""/><path d="m84.259 84.22 28.684 18.083c-2.546 3.303-3.942 7.32-3.942 11.56 0 5.075 1.977 9.847 5.565 13.436.488.488 1.128.732 1.768.732s1.279-.244 1.768-.732c.977-.976.977-2.559 0-3.536-2.645-2.644-4.101-6.16-4.101-9.899 0-3.28 1.122-6.388 3.182-8.887l6.575 4.145c1.289.812 2.766 1.219 4.243 1.219s2.954-.406 4.243-1.219l6.575-4.145c2.061 2.499 3.182 5.606 3.182 8.887 0 3.74-1.456 7.255-4.101 9.899-.977.977-.977 2.56 0 3.536.488.488 1.128.732 1.768.732s1.279-.244 1.768-.732c3.589-3.589 5.565-8.36 5.565-13.436 0-4.24-1.396-8.256-3.942-11.56l28.684-18.083h.001c2.325-1.466 3.713-3.983 3.713-6.731v-41.293c0-1.381-1.119-2.5-2.5-2.5h-89.91c-1.381 0-2.5 1.119-2.5 2.5v41.292c-.002 2.749 1.386 5.265 3.712 6.732zm1.286-45.524h84.91v38.792c0 1.021-.516 1.957-1.38 2.502l-39.498 24.901c-.959.604-2.195.604-3.154 0l-39.497-24.901c-.865-.545-1.381-1.48-1.381-2.502z" data-original="#846F75" class=""/></g></g> </svg>
