<svg id="Capa_1" enable-background="new 0 0 512 512" height="512" viewBox="0 0 512 512" width="512" xmlns="http://www.w3.org/2000/svg"><g><g><g><g><path d="m14.997 512c-1.933 0-3.882-.374-5.737-1.142-5.605-2.321-9.26-7.791-9.26-13.858v-360c0-8.284 6.716-15 15-15h370c8.284 0 15 6.716 15 15v300c0 8.284-6.716 15-15 15h-303.787l-55.606 55.606c-2.869 2.87-6.706 4.394-10.61 4.394z" fill="#e9f7ff"/></g></g><g><path d="m385 122h-185v330h185c8.284 0 15-6.716 15-15v-300c0-8.284-6.716-15-15-15z" fill="#dce6f5"/></g><g><g><path d="m497 210h-150c-8.284 0-15-6.716-15-15v-15c0-49.626 40.374-90 90-90s90 40.374 90 90v15c0 8.284-6.716 15-15 15z" fill="#6e75e2"/></g><path d="m497 210c8.284 0 15-6.716 15-15v-15c0-49.626-40.374-90-90-90v120z" fill="#4540c6"/><g><path d="m422 120c-33.084 0-60-26.916-60-60s26.916-60 60-60 60 26.916 60 60-26.916 60-60 60z" fill="#ffd3aa"/></g><path d="m422 0v120c33.084 0 60-26.916 60-60s-26.916-60-60-60z" fill="#fac18f"/></g><g><path d="m290 317h-180c-8.284 0-15-6.716-15-15s6.716-15 15-15h180c8.284 0 15 6.716 15 15s-6.716 15-15 15z" fill="#0a617d"/></g><path d="m327 30h-15v-15c0-8.284-6.716-15-15-15s-15 6.716-15 15v15h-15c-8.284 0-15 6.716-15 15s6.716 15 15 15h15v15c0 8.284 6.716 15 15 15s15-6.716 15-15v-15h15c8.284 0 15-6.716 15-15s-6.716-15-15-15z" fill="#08475e"/><path d="m90 212c0 16.569 13.431 30 30 30h160c16.569 0 30-13.431 30-30 0-16.569-13.431-30-30-30h-160c-16.568 0-30 13.431-30 30z" fill="#ff4a4a"/><path d="m280 182h-80v60h80c16.569 0 30-13.431 30-30 0-16.569-13.431-30-30-30z" fill="#c30047"/><g><path d="m290 392h-180c-8.284 0-15-6.716-15-15s6.716-15 15-15h180c8.284 0 15 6.716 15 15s-6.716 15-15 15z" fill="#0a617d"/></g></g><g><g fill="#08475e"><path d="m305 302c0-8.284-6.716-15-15-15h-90v30h90c8.284 0 15-6.716 15-15z"/><path d="m290 392c8.284 0 15-6.716 15-15s-6.716-15-15-15h-90v30z"/></g></g></g></svg>