<svg enable-background="new 0 0 256 256" height="512" viewBox="0 0 256 256" width="512" xmlns="http://www.w3.org/2000/svg"><path d="m128 58.245c-38.541 0-69.785 31.244-69.785 69.785s31.244 69.784 69.785 69.784 69.785-31.244 69.785-69.785-31.244-69.784-69.785-69.784zm0 126.297c-31.211 0-56.513-25.302-56.513-56.513s25.302-56.513 56.513-56.513 56.513 25.302 56.513 56.513-25.302 56.513-56.513 56.513z" fill="#ebe7f2"/><path d="m129.691 71.541c20.382.599 38.056 11.99 47.505 28.657.461.814 1.473 1.129 2.301.693l22.732-11.979c.845-.445 1.173-1.502.71-2.338-14.34-25.867-41.683-43.527-73.204-44.153-.953-.019-1.734.763-1.734 1.715v25.69c-.001.939.752 1.688 1.69 1.715z" fill="#65c1d6"/><path d="m104.118 153.831c0 .993.805 1.799 1.799 1.799h44.165c.993 0 1.799-.805 1.799-1.799v-10.219h-47.763z" fill="#ebe7f2"/><g fill="#846f75"><path d="m209.823 95.241c-.514-1.281-1.97-1.904-3.251-1.39s-1.903 1.969-1.39 3.251c3.943 9.832 5.942 20.237 5.942 30.927 0 29.504-15.637 56.733-40.976 71.662l-11.604-21.16c17.621-10.673 28.467-29.798 28.467-50.502 0-6.983-1.208-13.819-3.592-20.317-.476-1.296-1.916-1.96-3.207-1.486-1.297.476-1.962 1.912-1.486 3.208 2.18 5.945 3.285 12.201 3.285 18.595 0 19.714-10.744 37.865-28.039 47.369-1.209.665-1.651 2.183-.988 3.393l14.001 25.531c.319.582.856 1.013 1.493 1.198.229.066.465.1.699.1.417 0 .832-.104 1.204-.309 28.215-15.505 45.742-45.118 45.742-77.282.002-11.33-2.118-22.362-6.3-32.788z"/><path d="m161.615 204.089c-10.554 4.688-21.863 7.065-33.615 7.065-45.835 0-83.125-37.29-83.125-83.125 0-43.331 32.499-78.922 75.597-82.79 1.375-.123 2.39-1.338 2.267-2.713-.124-1.375-1.34-2.375-2.714-2.267-21.824 1.959-42.041 11.958-56.925 28.154-14.977 16.296-23.225 37.468-23.225 59.616 0 48.592 39.532 88.125 88.125 88.125 12.455 0 24.448-2.522 35.645-7.496 1.262-.561 1.831-2.038 1.271-3.299-.562-1.262-2.044-1.829-3.301-1.27z"/><path d="m119.961 69.56c-29.06 3.959-50.974 29.096-50.974 58.47 0 32.54 26.473 59.012 59.013 59.012 7.354 0 14.53-1.337 21.33-3.973 1.287-.5 1.926-1.948 1.427-3.235-.498-1.287-1.941-1.927-3.235-1.427-6.22 2.412-12.788 3.635-19.521 3.635-29.782 0-54.013-24.23-54.013-54.012 0-26.885 20.055-49.892 46.649-53.516 1.368-.187 2.325-1.446 2.14-2.814-.187-1.369-1.434-2.326-2.816-2.14z"/><path d="m111.988 107.16c0 3.629 1.208 7.052 3.34 9.804-7.793 1.453-13.71 8.305-13.71 16.513v20.354c0 2.371 1.929 4.299 4.299 4.299h44.166c2.37 0 4.299-1.928 4.299-4.299v-20.354c0-8.216-5.93-15.073-13.733-16.518 2.254-2.92 3.491-6.589 3.353-10.396-.301-8.255-6.998-15.019-15.247-15.398-4.43-.206-8.618 1.364-11.812 4.414-3.195 3.051-4.955 7.164-4.955 11.581zm8.408-7.965c2.195-2.097 5.084-3.177 8.127-3.035 5.67.261 10.274 4.911 10.481 10.585.154 4.255-2.189 8.263-5.971 10.21-1.026.528-1.557 1.69-1.285 2.812.271 1.122 1.275 1.911 2.43 1.911h3.405c6.505 0 11.798 5.292 11.798 11.798v19.653h-42.764v-19.653c0-6.505 5.293-11.798 11.798-11.798h3.405c1.154 0 2.158-.79 2.43-1.911s-.259-2.283-1.285-2.812c-3.688-1.899-5.978-5.653-5.978-9.796.001-3.037 1.211-5.866 3.409-7.964z"/></g></svg>