<?xml version="1.0" encoding="iso-8859-1"?>
<!-- Generator: Adobe Illustrator 19.0.0, SVG Export Plug-In . SVG Version: 6.00 Build 0)  -->
<svg version="1.1" id="Capa_1" xmlns="http://www.w3.org/2000/svg" xmlns:xlink="http://www.w3.org/1999/xlink" x="0px" y="0px"
	 viewBox="0 0 512 512" style="enable-background:new 0 0 512 512;" xml:space="preserve">
<path style="fill:#57545C;" d="M286,512c-8.284,0-15-6.716-15-15v-30c0-8.271-6.729-15-15-15s-15,6.729-15,15v30
	c0,8.284-6.716,15-15,15s-15-6.716-15-15v-30c0-24.813,20.187-45,45-45s45,20.187,45,45v30C301,505.284,294.284,512,286,512z"/>
<g>
	<path style="fill:#00CEB3;" d="M467,331c8.284,0,15-6.716,15-15s-6.716-15-15-15h-45v-30h45c8.284,0,15-6.716,15-15
		s-6.716-15-15-15h-60c-8.284,0-15,6.716-15,15v120c0,8.284,6.716,15,15,15h60c8.284,0,15-6.716,15-15s-6.716-15-15-15h-45v-30H467z
		"/>
	<path style="fill:#00CEB3;" d="M105,241H45c-8.284,0-15,6.716-15,15s6.716,15,15,15h45v30H45c-8.284,0-15,6.716-15,15
		s6.716,15,15,15h45v30H45c-8.284,0-15,6.716-15,15s6.716,15,15,15h60c8.284,0,15-6.716,15-15V256C120,247.716,113.284,241,105,241z
		"/>
</g>
<g>
	<path style="fill:#D2AE91;" d="M166,512H45c-8.284,0-15-6.716-15-15V196c0-8.284,6.716-15,15-15s15,6.716,15,15v286h106
		c8.284,0,15,6.716,15,15S174.284,512,166,512z"/>
	<path style="fill:#D2AE91;" d="M467,512H346c-8.284,0-15-6.716-15-15s6.716-15,15-15h106V196c0-8.284,6.716-15,15-15
		s15,6.716,15,15v301C482,505.284,475.284,512,467,512z"/>
</g>
<g>
	<path style="fill:#FF180B;" d="M166,211H15c-8.284,0-15-6.716-15-15s6.716-15,15-15h151c8.284,0,15,6.716,15,15
		S174.284,211,166,211z"/>
	<path style="fill:#FF180B;" d="M497,211H346c-8.284,0-15-6.716-15-15s6.716-15,15-15h151c8.284,0,15,6.716,15,15
		S505.284,211,497,211z"/>
</g>
<path style="fill:#00CEB3;" d="M346,331c8.284,0,15-6.716,15-15s-6.716-15-15-15h-45v-30h45c8.284,0,15-6.716,15-15s-6.716-15-15-15
	h-60h-60h-60c-8.284,0-15,6.716-15,15s6.716,15,15,15h45v30h-45c-8.284,0-15,6.716-15,15s6.716,15,15,15h45v30h-45
	c-8.284,0-15,6.716-15,15s6.716,15,15,15h60h60h60c8.284,0,15-6.716,15-15s-6.716-15-15-15h-45v-30H346z M241,271h30v30h-30V271z
	 M271,361h-30v-30h30V361z"/>
<path style="fill:#FF180B;" d="M286,151h-15v-15c0-8.284-6.716-15-15-15s-15,6.716-15,15v15h-15c-8.284,0-15,6.716-15,15
	s6.716,15,15,15h15v15c0,8.284,6.716,15,15,15s15-6.716,15-15v-15h15c8.284,0,15-6.716,15-15S294.284,151,286,151z"/>
<g>
	<path style="fill:#E6CCBF;" d="M346,512H166c-8.284,0-15-6.716-15-15V75c0-8.284,6.716-15,15-15s15,6.716,15,15v407h150V75
		c0-8.284,6.716-15,15-15s15,6.716,15,15v422C361,505.284,354.284,512,346,512z"/>
	<path style="fill:#E6CCBF;" d="M316,90c-8.284,0-15-6.716-15-15V15c0-8.284,6.716-15,15-15s15,6.716,15,15v60
		C331,83.284,324.284,90,316,90z"/>
	<path style="fill:#E6CCBF;" d="M196,90c-8.284,0-15-6.716-15-15V15c0-8.284,6.716-15,15-15s15,6.716,15,15v60
		C211,83.284,204.284,90,196,90z"/>
</g>
<g>
	<path style="fill:#FF180B;" d="M346,30H166c-8.284,0-15-6.716-15-15s6.716-15,15-15h180c8.284,0,15,6.716,15,15S354.284,30,346,30z
		"/>
	<path style="fill:#FF180B;" d="M376,90H136c-8.284,0-15-6.716-15-15s6.716-15,15-15h240c8.284,0,15,6.716,15,15S384.284,90,376,90z
		"/>
</g>
<g>
</g>
<g>
</g>
<g>
</g>
<g>
</g>
<g>
</g>
<g>
</g>
<g>
</g>
<g>
</g>
<g>
</g>
<g>
</g>
<g>
</g>
<g>
</g>
<g>
</g>
<g>
</g>
<g>
</g>
</svg>
