<svg enable-background="new 0 0 58 58" height="512" viewBox="0 0 58 58" width="512" xmlns="http://www.w3.org/2000/svg"><path d="m26 16.007 3 3 3-3c.183-.013.832-.004 1 0-.911-1.279-2-5.007-2-8.007h-4c0 3-1.089 6.728-2 8.007.168-.005.817-.013 1 0z" fill="#c9a27b"/><g fill="#61b872"><path d="m51 19c-.552 0-1-.447-1-1 0-3.309 2.691-6 6-6 .552 0 1 .447 1 1s-.448 1-1 1c-2.206 0-4 1.794-4 4 0 .553-.448 1-1 1z"/><path d="m51 19c-.552 0-1-.447-1-1 0-2.206-1.794-4-4-4-.552 0-1-.447-1-1s.448-1 1-1c3.309 0 6 2.691 6 6 0 .553-.448 1-1 1z"/><path d="m51 19c-.552 0-1-.447-1-1v-8c0-.553.448-1 1-1s1 .447 1 1v8c0 .553-.448 1-1 1z"/></g><path d="m54.225 58h-50.45c-.98 0-1.775-.795-1.775-1.775v-28.225h54v28.225c0 .98-.795 1.775-1.775 1.775z" fill="#be7c6d"/><path d="m54 27.997h-6v-9.01c0-.545.442-.987.987-.987h4.027c.544 0 .986.442.986.987z" fill="#7383bf"/><path d="m32 15-3 3-3-3c-3.043-.212-4 2.002-4 5v7h14v-7c0-2.998-.957-5.212-4-5z" fill="#366db6"/><path d="m6 20.973v-1.945c0-.568.46-1.028 1.027-1.028h6.945c.568 0 1.028.46 1.028 1.027v1.945c0 .568-.46 1.028-1.027 1.028h-6.946c-.567 0-1.027-.46-1.027-1.027z" fill="#61b872"/><path d="m4 24.973v-1.945c0-.568.46-1.028 1.027-1.028h6.945c.568 0 1.028.46 1.028 1.027v1.945c0 .568-.46 1.028-1.027 1.028h-6.946c-.567 0-1.027-.46-1.027-1.027z" fill="#366db6"/><path d="m4 16.973v-1.945c0-.568.46-1.028 1.027-1.028h6.945c.568 0 1.028.46 1.028 1.027v1.945c0 .568-.46 1.028-1.027 1.028h-6.946c-.567 0-1.027-.46-1.027-1.027z" fill="#ebba16"/><circle cx="29" cy="44" fill="#fff" r="10"/><path d="m35 42h-4v-4h-4v4h-4v4h4v4h4v-4h4z" fill="#dd352e"/><path d="m56.225 30h-54.45c-.98 0-1.775-.795-1.775-1.775v-.45c0-.98.795-1.775 1.775-1.775h54.45c.98 0 1.775.795 1.775 1.775v.45c0 .98-.795 1.775-1.775 1.775z" fill="#6b4842"/><path d="m34.817 8.776c-.942-1.174-1.762-2.385-1.817-4.776 0 0-.001-.059-.008-.155-.259-.169-.444-.413-.552-.693-1.59-1.147-3.859-2.172-5.378-.63-.076.715-.573 1.376-1.499 1.376-.207 0-.386-.04-.551-.098-.01.122-.012.2-.012.2-.055 2.391-.875 3.602-1.817 4.776-.359.447-.182 1.22.461 1.224h10.713c.642-.004.819-.777.46-1.224z" fill="#fbce9d"/><path d="m32 23h-6c-.552 0-1-.447-1-1s.448-1 1-1h6c.552 0 1 .447 1 1s-.448 1-1 1z" fill="#fff"/><path d="m29 0c-4 0-4 4-4 4h8s0-4-4-4z" fill="#6b4842"/></svg>