<?xml version="1.0" encoding="iso-8859-1"?>
<!-- Generator: Adobe Illustrator 19.0.0, SVG Export Plug-In . SVG Version: 6.00 Build 0)  -->
<svg version="1.1" id="Layer_1" xmlns="http://www.w3.org/2000/svg" xmlns:xlink="http://www.w3.org/1999/xlink" x="0px" y="0px"
	 viewBox="0 0 512 512" style="enable-background:new 0 0 512 512;" xml:space="preserve">
<path style="fill:#415A6B;" d="M442.667,314.667v49.067h-21.333v-38.4H266.667v38.4h-21.333v-38.4H90.667v38.4H69.333v-49.067
	C69.333,308.267,73.6,304,80,304h165.333v-49.067h21.333V304H432C438.4,304,442.667,309.333,442.667,314.667z"/>
<circle style="fill:#F3705A;" cx="80" cy="432" r="80"/>
<g>
	<path style="fill:#FFFFFF;" d="M80,493.867c17.067,0,33.067-7.467,43.733-18.133c-4.267-20.267-22.4-35.2-43.733-35.2
		s-39.467,14.933-43.733,35.2C46.933,486.4,62.933,493.867,80,493.867z"/>
	<circle style="fill:#FFFFFF;" cx="80" cy="410.667" r="20.267"/>
</g>
<circle style="fill:#4EC0AA;" cx="432" cy="432" r="80"/>
<g>
	<path style="fill:#FFFFFF;" d="M432,493.867c17.067,0,33.067-7.467,43.733-18.133c-4.267-20.267-22.4-35.2-43.733-35.2
		c-21.333,0-39.467,14.933-43.733,35.2C400,486.4,414.933,493.867,432,493.867z"/>
	<circle style="fill:#FFFFFF;" cx="432" cy="410.667" r="20.267"/>
</g>
<circle style="fill:#FFD15C;" cx="256" cy="432" r="80"/>
<g>
	<path style="fill:#FFFFFF;" d="M256,493.867c17.067,0,33.067-7.467,43.733-18.133c-4.267-20.267-22.4-35.2-43.733-35.2
		s-39.467,14.933-43.733,35.2C222.933,486.4,238.933,493.867,256,493.867z"/>
	<circle style="fill:#FFFFFF;" cx="256" cy="410.667" r="20.267"/>
</g>
<path style="fill:#8AD7F8;" d="M358.4,164.267l35.2-7.467v-38.4l-35.2-7.467c-2.133-9.6-6.4-19.2-11.733-26.667l20.267-30.933
	l-26.667-26.667l-30.933,20.267C300.8,41.6,292.267,38.4,281.6,35.2l0,0L275.2,0h-38.4l-7.467,35.2l0,0
	c-9.6,2.133-19.2,6.4-27.733,11.733l-29.867-19.2l-26.667,25.6l19.2,29.867c-5.333,8.533-8.533,18.133-11.733,27.733l0,0
	l-35.2,7.467v38.4l35.2,7.467c2.133,9.6,6.4,19.2,11.733,27.733l-19.2,29.867l26.667,26.667l29.867-19.2
	c8.533,5.333,17.067,8.533,27.733,11.733l0,0l7.467,35.2h38.4l7.467-35.2l0,0c9.6-2.133,19.2-6.4,27.733-11.733l29.867,19.2
	l26.667-26.667L347.733,192C352,182.4,356.267,173.867,358.4,164.267L358.4,164.267z M256,176c-21.333,0-38.4-17.067-38.4-38.4
	s17.067-38.4,38.4-38.4s38.4,17.067,38.4,38.4S277.333,176,256,176z"/>
<path style="fill:#55C0EB;" d="M256,74.667c-35.2,0-62.933,27.733-62.933,62.933s28.8,62.933,62.933,62.933
	c35.2,0,62.933-28.8,62.933-62.933C318.933,102.4,291.2,74.667,256,74.667z M256,176c-21.333,0-38.4-17.067-38.4-38.4
	s17.067-38.4,38.4-38.4s38.4,17.067,38.4,38.4S277.333,176,256,176z"/>
<g>
</g>
<g>
</g>
<g>
</g>
<g>
</g>
<g>
</g>
<g>
</g>
<g>
</g>
<g>
</g>
<g>
</g>
<g>
</g>
<g>
</g>
<g>
</g>
<g>
</g>
<g>
</g>
<g>
</g>
</svg>
