<?xml version="1.0"?>
<svg xmlns="http://www.w3.org/2000/svg" xmlns:xlink="http://www.w3.org/1999/xlink" version="1.1" id="Layer_1" x="0px" y="0px" viewBox="0 0 485 485" style="enable-background:new 0 0 485 485;" xml:space="preserve" width="50.75rem" height="50.75rem" class=""><g><path style="fill:#A5D6A7" d="M445.9,88.2v135.5c0,123.4-83.8,231-203.5,261.3C122.9,454.8,39.1,347.1,39.1,223.7V88.2  C133.2,77.6,186.5,41.8,242.5,0C298.5,41.8,351.8,77.6,445.9,88.2z" data-original="#FFD15C" class="" data-old_color="#FFD15C"/><path style="fill:#66BB6A" d="M242.5,431.5c-90.1-28.6-152-112.2-152-207.8v-91.8c63.3-13.8,109.8-39.3,152-68.4  c43.1,29.9,88.7,54.9,152,68.5v91.8C394.5,319.3,332.6,402.9,242.5,431.5z" data-original="#F8B64C" class="active-path" data-old_color="#F8B64C"/><polygon style="fill:#FFFFFF" points="208.8,325.4 158.7,275.3 184.1,249.8 208.8,274.4 300.9,182.4 326.3,207.8 " data-original="#FFFFFF" class="" data-old_color="#FFFFFF"/></g> </svg>
